<?xml version="1.0" encoding="UTF-8" standalone="no"?>
<!-- Created with Inkscape (http://www.inkscape.org/) -->

<svg
   width="800"
   height="400"
   viewBox="0 0 211.66666 105.83334"
   version="1.1"
   id="svg1"
   inkscape:export-filename="c71qu3.png"
   inkscape:export-xdpi="960"
   inkscape:export-ydpi="960"
   inkscape:version="1.4 (e7c3feb100, 2024-10-09)"
   sodipodi:docname="c71qu3_logo.svg"
   xmlns:inkscape="http://www.inkscape.org/namespaces/inkscape"
   xmlns:sodipodi="http://sodipodi.sourceforge.net/DTD/sodipodi-0.dtd"
   xmlns="http://www.w3.org/2000/svg"
   xmlns:svg="http://www.w3.org/2000/svg">
  <sodipodi:namedview
     id="namedview1"
     pagecolor="#ffffff"
     bordercolor="#000000"
     borderopacity="0.25"
     inkscape:showpageshadow="2"
     inkscape:pageopacity="0.0"
     inkscape:pagecheckerboard="0"
     inkscape:deskcolor="#d1d1d1"
     inkscape:document-units="px"
     showgrid="false"
     inkscape:export-bgcolor="#ffffff00"
     showguides="true"
     inkscape:zoom="0.84656755"
     inkscape:cx="370.31894"
     inkscape:cy="431.15284"
     inkscape:window-width="1920"
     inkscape:window-height="1163"
     inkscape:window-x="0"
     inkscape:window-y="0"
     inkscape:window-maximized="1"
     inkscape:current-layer="layer1" />
  <defs
     id="defs1" />
  <g
     inkscape:label="Layer 1"
     inkscape:groupmode="layer"
     id="layer1">
    <path
       id="text1"
       style="font-size:19.7556px;font-family:Rubik;-inkscape-font-specification:Rubik;stroke-width:0.784229"
       d="m 76.629297,26.98764 c -0.39039,0 -0.701715,0.116433 -0.935865,0.350747 -0.23429,0.273186 -0.352299,0.605221 -0.352299,0.995611 v 38.295564 c 0,0.390367 0.118137,0.703244 0.352299,0.937418 0.23422,0.273163 0.545475,0.41048 0.935865,0.41048 h 2.986818 c 0.273268,0 0.527088,-0.021 0.76125,-0.05997 0.234232,-0.03897 0.48797,-0.155167 0.76125,-0.350747 L 93.903816,57.72861 c 0.31225,-0.23429 0.50715,-0.526307 0.58511,-0.877638 0.039,-0.351283 -0.0583,-0.702496 -0.29253,-1.053803 l -1.52253,-1.933005 c -0.23422,-0.31241 -0.52633,-0.488064 -0.87766,-0.526914 -0.35135,-0.0392 -0.68331,0.05833 -0.99561,0.292648 l -9.720163,7.496141 V 28.333881 c 0,-0.39039 -0.118136,-0.722354 -0.352286,-0.995634 -0.27328,-0.23429 -0.60522,-0.350747 -0.99561,-0.350747 z m -16.033827,0.0093 c -0.468451,0 -0.821135,0.156567 -1.055343,0.468697 -0.273245,0.351307 -0.468008,0.683248 -0.585107,0.995588 L 44.491174,62.131103 c -0.15631,0.390367 -0.272813,0.741463 -0.350763,1.05378 -0.07793,0.312293 -0.11641,0.722471 -0.11641,1.229971 v 2.165825 c 0,0.429403 0.135683,0.761414 0.408961,0.995587 0.234257,0.273187 0.56618,0.410527 0.995604,0.410527 h 24.007858 c 0.390378,0 0.722353,-0.137433 0.99561,-0.410527 0.234231,-0.23429 0.350758,-0.566184 0.350758,-0.995587 v -2.341968 c 0,-0.39039 -0.11655,-0.722331 -0.350758,-0.995611 -0.273245,-0.23429 -0.605232,-0.350747 -0.99561,-0.350747 H 50.230446 L 64.810695,28.812004 c 0.07805,-0.23429 0.116434,-0.409803 0.116434,-0.52689 0,-0.35133 -0.0973,-0.662621 -0.29253,-0.935877 -0.234232,-0.23429 -0.52633,-0.352264 -0.877672,-0.352264 z m 122.91124,0.182 c -2.8497,0 -5.40656,0.48685 -7.67073,1.462768 -2.26415,0.975941 -4.04052,2.382008 -5.3288,4.216779 -1.28821,1.873786 -1.93298,4.117823 -1.93298,6.733351 0,2.576469 0.54736,4.70399 1.64043,6.382591 1.05399,1.717661 2.55593,3.005662 4.50779,3.864469 1.91282,0.858831 4.15842,1.328181 6.7349,1.406114 l 0.93588,0.0581 -11.30091,12.590583 c -0.1561,0.195066 -0.29356,0.389783 -0.41048,0.585106 -0.1561,0.234267 -0.23287,0.487993 -0.23287,0.76125 v 2.107609 c 0,0.429427 0.1358,0.761437 0.40899,0.99561 0.23429,0.273163 0.56621,0.410503 0.99559,0.410503 h 23.36454 c 0.39039,0 0.72231,-0.137433 0.99563,-0.410503 0.23429,-0.23429 0.35075,-0.566183 0.35075,-0.99561 v -2.225699 c 0,-0.429403 -0.11643,-0.76146 -0.35075,-0.995633 -0.27318,-0.234267 -0.60524,-0.350747 -0.99563,-0.350747 h -17.2745 l 11.3591,-12.414416 c 0.1561,-0.195066 0.31248,-0.428213 0.4687,-0.70154 0.1169,-0.234266 0.17593,-0.527823 0.17593,-0.879177 v -1.580695 c 0,-0.429403 -0.11643,-0.76146 -0.35077,-0.99561 -0.27316,-0.23429 -0.60522,-0.35077 -0.99561,-0.35077 h -5.56313 c -2.69359,0 -4.80194,-0.547401 -6.3244,-1.640451 -1.52247,-1.093037 -2.28375,-2.907788 -2.28375,-5.445197 0,-2.498395 0.83949,-4.391289 2.51811,-5.679547 1.67863,-1.288211 3.86518,-1.933028 6.55874,-1.933028 1.28825,0 2.57628,0.137434 3.86449,0.410527 1.24917,0.312247 2.36163,0.858155 3.33757,1.638911 0.93688,0.780735 1.60083,1.874018 1.9912,3.279362 0.19507,0.507524 0.4298,0.839395 0.70308,0.995612 0.27319,0.1561 0.5845,0.23429 0.93585,0.23429 h 2.87042 c 0.35131,0 0.6435,-0.0973 0.87765,-0.292624 0.23429,-0.195066 0.35077,-0.469654 0.35077,-0.820961 -0.0392,-1.288281 -0.37098,-2.536404 -0.99562,-3.746565 -0.66362,-1.210138 -1.61966,-2.322602 -2.86886,-3.337579 -1.24917,-1.014978 -2.79097,-1.835332 -4.62574,-2.459918 -1.83474,-0.585505 -3.98143,-0.877661 -6.44081,-0.877661 z M 26.87203,36.90989 c -2.77165,0 -5.17211,0.547377 -7.202053,1.640428 -1.990901,1.054013 -3.53269,2.595788 -4.625732,4.625742 -1.093048,1.990905 -1.678787,4.39137 -1.756858,7.202012 -0.03901,0.58562 -0.05822,1.366074 -0.05822,2.342014 0,0.975941 0.01913,1.756441 0.05822,2.341945 0.07807,2.810712 0.663812,5.231851 1.756858,7.261829 1.093042,1.990894 2.634831,3.532669 4.625732,4.625719 2.029943,1.054014 4.430403,1.580694 7.202053,1.580694 1.795718,0 3.396535,-0.194833 4.801879,-0.58513 1.444384,-0.42938 2.674895,-0.976828 3.689864,-1.640428 1.014975,-0.70266 1.85295,-1.483138 2.516582,-2.341944 0.702673,-0.897868 1.210211,-1.775738 1.522509,-2.634546 0.312289,-0.85883 0.48787,-1.698318 0.526907,-2.518111 0.03904,-0.390391 -0.07751,-0.703244 -0.350762,-0.937418 -0.273245,-0.23429 -0.605227,-0.350746 -0.9956,-0.350746 h -2.810671 c -0.390369,0 -0.682483,0.0973 -0.877664,0.292623 -0.195184,0.1561 -0.391462,0.44982 -0.586641,0.879201 -0.702672,1.912821 -1.658717,3.258361 -2.868872,4.039119 -1.210156,0.780733 -2.712078,1.171708 -4.507796,1.171708 -2.342238,0 -4.25586,-0.702241 -5.73928,-2.107609 -1.444374,-1.44438 -2.224859,-3.787306 -2.341966,-7.027421 -0.03906,-1.327248 -0.03906,-2.693485 0,-4.098829 0.11711,-3.201056 0.897585,-5.52333 2.341966,-6.967721 1.48342,-1.444381 3.397042,-2.167364 5.73928,-2.167364 1.795718,0 3.29764,0.390997 4.507796,1.171753 1.210155,0.780758 2.1662,2.127777 2.868872,4.040623 0.195183,0.429357 0.39146,0.740553 0.586641,0.935877 0.195183,0.1561 0.487291,0.234593 0.877664,0.234593 h 2.810671 c 0.390373,0 0.722346,-0.116433 0.9956,-0.35077 0.273246,-0.23429 0.389796,-0.54698 0.350762,-0.937417 C 39.890731,45.615385 39.59863,44.542774 39.052108,43.410678 38.544619,42.27859 37.764148,41.223712 36.710137,40.247749 35.656132,39.271831 34.309082,38.472175 32.669512,37.847563 31.06898,37.222977 29.136192,36.91017 26.87203,36.91017 Z m 84.5728,0.0093 c -2.14704,0 -4.00162,0.3703 -5.56311,1.111997 -1.56149,0.741721 -2.84952,1.756815 -3.86449,3.045026 -0.97594,1.288257 -1.71654,2.751842 -2.224024,4.391369 -0.46846,1.639588 -0.74293,3.396799 -0.82098,5.270583 -0.039,0.62461 -0.0583,1.288538 -0.0583,1.991198 0,0.702684 0.0187,1.366611 0.0583,1.991221 0.0782,1.834772 0.35252,3.590443 0.82098,5.269067 0.507484,1.639541 1.248084,3.103126 2.224024,4.39136 1.01497,1.249198 2.303,2.264268 3.86449,3.045026 1.56149,0.741696 3.41607,1.113536 5.56311,1.113536 2.26418,0 4.15712,-0.41013 5.67957,-1.229923 1.56149,-0.858854 2.83036,-1.912261 3.80628,-3.161435 v 13.584629 c 0,0.390366 0.1183,0.701726 0.35226,0.935853 0.23429,0.273187 0.56621,0.410481 0.99561,0.410481 h 2.81066 c 0.39037,0 0.70171,-0.136968 0.93588,-0.410481 0.27316,-0.233987 0.4105,-0.545487 0.4105,-0.935853 V 38.850665 c 0,-0.39039 -0.13743,-0.70175 -0.4105,-0.935878 -0.23429,-0.273187 -0.54551,-0.41048 -0.93588,-0.41048 h -2.69425 c -0.39039,0 -0.72233,0.136966 -0.99561,0.41048 -0.23429,0.233988 -0.35072,0.545488 -0.35072,0.935878 v 2.577844 c -0.93691,-1.288257 -2.18662,-2.362338 -3.74811,-3.221144 -1.56146,-0.858832 -3.51344,-1.288165 -5.85569,-1.288165 z m 24.76914,0.58506 c -0.39036,0 -0.72235,0.137434 -0.99563,0.410527 -0.23429,0.233988 -0.35075,0.545465 -0.35075,0.935878 v 16.513254 c 0,2.576468 0.44854,4.860382 1.34638,6.851301 0.89785,1.990895 2.20657,3.551826 3.92423,4.683912 1.75667,1.093051 3.88418,1.640451 6.38261,1.640451 2.45931,0 4.43042,-0.41013 5.91386,-1.229923 1.52243,-0.819794 2.81043,-1.913078 3.86449,-3.279362 v 2.576281 c 0,0.39039 0.11643,0.722331 0.35074,0.995611 0.27319,0.23429 0.60527,0.350747 0.99564,0.350747 h 2.69423 c 0.4294,0 0.76143,-0.116434 0.99561,-0.350747 0.23429,-0.273187 0.35074,-0.605221 0.35074,-0.995611 V 38.850665 c 0,-0.390414 -0.11643,-0.70175 -0.35074,-0.935878 -0.23429,-0.273187 -0.56621,-0.410527 -0.99561,-0.410527 h -2.86888 c -0.39039,0 -0.72233,0.137433 -0.99559,0.410527 -0.23429,0.233988 -0.35231,0.545464 -0.35231,0.935878 v 16.220676 c 0,2.732639 -0.74062,4.879283 -2.22402,6.440798 -1.4444,1.522477 -3.37715,2.283775 -5.79747,2.283775 -5.07485,0 -7.61256,-2.907989 -7.61256,-8.724573 V 38.850665 c 0,-0.390414 -0.13743,-0.70175 -0.41048,-0.935878 -0.23429,-0.273187 -0.54551,-0.410527 -0.9359,-0.410527 z m -23.53916,4.157047 c 1.91284,0 3.45461,0.45003 4.62571,1.34792 1.21019,0.897868 2.10873,2.048655 2.69426,3.453998 0.58548,1.366285 0.89679,2.772353 0.9359,4.216757 0.038,0.62461 0.06,1.366751 0.06,2.225558 0,0.858831 -0.021,1.618611 -0.06,2.282212 -0.0392,1.366307 -0.371,2.713388 -0.99561,4.040636 -0.58555,1.327271 -1.48258,2.420554 -2.69272,3.279362 -1.17112,0.85883 -2.69374,1.288165 -4.56754,1.288165 -1.99091,0 -3.57258,-0.429335 -4.74368,-1.288165 -1.17112,-0.897868 -2.00912,-2.048621 -2.51659,-3.453966 -0.50748,-1.444404 -0.80113,-2.987742 -0.8792,-4.627283 -0.039,-1.132088 -0.039,-2.263638 0,-3.395749 0.0782,-1.639564 0.37172,-3.162205 0.8792,-4.567527 0.50747,-1.444426 1.34547,-2.59519 2.51659,-3.453998 1.1711,-0.89789 2.75277,-1.34792 4.74368,-1.34792 z" />
  </g>
</svg>
